<?xml version="1.0" encoding="utf-8"?>
<!-- Generator: Adobe Illustrator 22.0.1, SVG Export Plug-In . SVG Version: 6.00 Build 0)  -->
<svg version="1.1" id="Layer_1" xmlns="http://www.w3.org/2000/svg" xmlns:xlink="http://www.w3.org/1999/xlink" x="0px" y="0px"
	 viewBox="0 0 300 300" style="enable-background:new 0 0 300 300;" xml:space="preserve">
<style type="text/css">
	.st0{fill:url(#SVGID_1_);}
	.st1{fill:url(#SVGID_2_);}
	.st2{fill:url(#SVGID_3_);}
	.st3{fill:url(#SVGID_4_);}
	.st4{fill:url(#SVGID_5_);}
	.st5{fill:url(#SVGID_6_);}
	.st6{fill:url(#SVGID_7_);}
	.st7{fill:url(#SVGID_8_);}
	.st8{fill:url(#SVGID_9_);}
	.st9{fill:url(#SVGID_10_);}
	.st10{fill:url(#SVGID_11_);}
	.st11{fill:url(#SVGID_12_);}
	.st12{fill:url(#SVGID_13_);}
	.st13{fill:url(#SVGID_14_);}
	.st14{fill:url(#SVGID_15_);}
	.st15{fill:url(#SVGID_16_);}
	.st16{fill:url(#SVGID_17_);}
	.st17{fill:url(#SVGID_18_);}
	.st18{fill:url(#SVGID_19_);}
	.st19{fill:url(#SVGID_20_);}
	.st20{fill:url(#SVGID_21_);}
	.st21{fill:url(#SVGID_22_);}
	.st22{fill:url(#SVGID_23_);}
	.st23{fill:url(#SVGID_24_);}
	.st24{fill:url(#SVGID_25_);}
	.st25{fill:url(#SVGID_26_);}
	.st26{fill:url(#SVGID_27_);}
	.st27{fill:url(#SVGID_28_);}
	.st28{fill:url(#SVGID_29_);}
	.st29{fill:url(#SVGID_30_);}
	.st30{fill:url(#SVGID_31_);}
	.st31{fill:url(#SVGID_32_);}
	.st32{fill:url(#SVGID_33_);}
	.st33{fill:url(#SVGID_34_);}
	.st34{fill:url(#SVGID_35_);}
	.st35{fill:url(#SVGID_36_);}
	.st36{fill:url(#SVGID_37_);}
	.st37{fill:url(#SVGID_38_);}
	.st38{fill:url(#SVGID_39_);}
	.st39{fill:url(#SVGID_40_);}
	.st40{fill:url(#SVGID_41_);}
	.st41{fill:url(#SVGID_42_);}
	.st42{fill:url(#SVGID_43_);}
	.st43{fill:url(#SVGID_44_);}
	.st44{fill:url(#SVGID_45_);}
	.st45{fill:url(#SVGID_46_);}
	.st46{fill:url(#SVGID_47_);}
	.st47{fill:url(#SVGID_48_);}
	.st48{fill:url(#SVGID_49_);}
	.st49{fill:url(#SVGID_50_);}
	.st50{fill:url(#SVGID_51_);}
	.st51{fill:url(#SVGID_52_);}
</style>
<g>
	<linearGradient id="SVGID_1_" gradientUnits="userSpaceOnUse" x1="67.8668" y1="172.347" x2="167.6155" y2="288.4274">
		<stop  offset="0" style="stop-color:#F9EDB3"/>
		<stop  offset="1" style="stop-color:#CE962D"/>
	</linearGradient>
	<path class="st0" d="M99.7,207.9h16v5h-10.1v3.3h8.3v4.7h-8.3v3.7h10.8v5H99.7V207.9z"/>
	<linearGradient id="SVGID_2_" gradientUnits="userSpaceOnUse" x1="80.3408" y1="161.628" x2="180.0896" y2="277.7084">
		<stop  offset="0" style="stop-color:#F9EDB3"/>
		<stop  offset="1" style="stop-color:#CE962D"/>
	</linearGradient>
	<path class="st1" d="M119.5,207.9h5.4l8.6,12.1v-12.1h5.8v21.6h-5l-8.9-12.4v12.4h-5.8V207.9z"/>
	<linearGradient id="SVGID_3_" gradientUnits="userSpaceOnUse" x1="95.1792" y1="148.8772" x2="194.928" y2="264.9576">
		<stop  offset="0" style="stop-color:#F9EDB3"/>
		<stop  offset="1" style="stop-color:#CE962D"/>
	</linearGradient>
	<path class="st2" d="M148.8,212.9h-6.8v-5h19.6v5h-6.8v16.6h-6V212.9z"/>
	<linearGradient id="SVGID_4_" gradientUnits="userSpaceOnUse" x1="104.2746" y1="141.0615" x2="204.0233" y2="257.1419">
		<stop  offset="0" style="stop-color:#F9EDB3"/>
		<stop  offset="1" style="stop-color:#CE962D"/>
	</linearGradient>
	<path class="st3" d="M164.2,207.9h9.2c4.8,0,7.9,2.4,7.9,7.1c0,2.9-1.4,5-3.5,6.2l4.8,8.3h-6.3l-3.8-7.4H170v7.4h-5.8V207.9z
		 M172.9,217.6c1.6,0,2.6-1,2.6-2.6c0-1.7-1-2.7-2.7-2.7H170v5.2H172.9z"/>
	<linearGradient id="SVGID_5_" gradientUnits="userSpaceOnUse" x1="115.8024" y1="131.1556" x2="215.5511" y2="247.236">
		<stop  offset="0" style="stop-color:#F9EDB3"/>
		<stop  offset="1" style="stop-color:#CE962D"/>
	</linearGradient>
	<path class="st4" d="M191.7,207.9h6.8l7.9,21.6H200l-1.4-4.5h-7.5l-1.5,4.5h-6.1L191.7,207.9z M197.4,220.9l-2.5-7.9l-2.6,7.9
		H197.4z"/>
	<linearGradient id="SVGID_6_" gradientUnits="userSpaceOnUse" x1="127.6902" y1="120.9403" x2="227.4389" y2="237.0207">
		<stop  offset="0" style="stop-color:#F9EDB3"/>
		<stop  offset="1" style="stop-color:#CE962D"/>
	</linearGradient>
	<path class="st5" d="M208.7,207.9h5.9v16.6H225v5.1h-16.2V207.9z"/>
	<g>
		<linearGradient id="SVGID_7_" gradientUnits="userSpaceOnUse" x1="41.7262" y1="194.8098" x2="141.475" y2="310.8902">
			<stop  offset="0" style="stop-color:#F9EDB3"/>
			<stop  offset="1" style="stop-color:#CE962D"/>
		</linearGradient>
		<path class="st6" d="M78,236.2h4.7v0.9h-3.6v2.1h2.7v0.9h-2.7v2.3H83v0.9H78V236.2z"/>
		<linearGradient id="SVGID_8_" gradientUnits="userSpaceOnUse" x1="52.5861" y1="185.4778" x2="152.3348" y2="301.5582">
			<stop  offset="0" style="stop-color:#F9EDB3"/>
			<stop  offset="1" style="stop-color:#CE962D"/>
		</linearGradient>
		<path class="st7" d="M98.8,239.7l-2.5-3.5h1.3l1.8,2.6l1.8-2.6h1.2l-2.4,3.4l2.6,3.8h-1.3l-2-2.9l-2,2.9h-1.2L98.8,239.7z"/>
		<linearGradient id="SVGID_9_" gradientUnits="userSpaceOnUse" x1="64.3047" y1="175.408" x2="164.0534" y2="291.4884">
			<stop  offset="0" style="stop-color:#F9EDB3"/>
			<stop  offset="1" style="stop-color:#CE962D"/>
		</linearGradient>
		<path class="st8" d="M122.6,242.1c-0.3,0.5-1.4,1.4-2.9,1.4c-2.2,0-3.7-1.6-3.7-3.8c0-2.1,1.5-3.8,3.7-3.8c1.6,0,2.5,0.8,2.9,1.4
			l-0.8,0.6c-0.4-0.5-1-1.1-2.1-1.1c-1.6,0-2.6,1.3-2.6,2.9c0,1.6,1,2.8,2.6,2.8c1.3,0,1.9-0.8,2.2-1.1L122.6,242.1z"/>
		<linearGradient id="SVGID_10_" gradientUnits="userSpaceOnUse" x1="75.7948" y1="165.5344" x2="175.5435" y2="281.6148">
			<stop  offset="0" style="stop-color:#F9EDB3"/>
			<stop  offset="1" style="stop-color:#CE962D"/>
		</linearGradient>
		<path class="st9" d="M136.5,236.2h1.1v3h4.1v-3h1.1v7.2h-1.1v-3.3h-4.1v3.3h-1.1V236.2z"/>
		<linearGradient id="SVGID_11_" gradientUnits="userSpaceOnUse" x1="86.5842" y1="156.263" x2="186.3329" y2="272.3434">
			<stop  offset="0" style="stop-color:#F9EDB3"/>
			<stop  offset="1" style="stop-color:#CE962D"/>
		</linearGradient>
		<path class="st10" d="M159.3,236.2h1.1l2.9,7.2h-1.2l-0.8-2h-3.1l-0.8,2h-1.1L159.3,236.2z M161,240.5l-1.2-3.2l-1.2,3.2H161z"/>
		<linearGradient id="SVGID_12_" gradientUnits="userSpaceOnUse" x1="99.0454" y1="145.555" x2="198.7942" y2="261.6353">
			<stop  offset="0" style="stop-color:#F9EDB3"/>
			<stop  offset="1" style="stop-color:#CE962D"/>
		</linearGradient>
		<path class="st11" d="M176.9,236.2h1.1l4.1,5.6v-5.6h1v7.2H182l-4.1-5.6v5.6h-1V236.2z"/>
		<linearGradient id="SVGID_13_" gradientUnits="userSpaceOnUse" x1="111.0412" y1="135.2469" x2="210.7899" y2="251.3273">
			<stop  offset="0" style="stop-color:#F9EDB3"/>
			<stop  offset="1" style="stop-color:#CE962D"/>
		</linearGradient>
		<path class="st12" d="M201.3,239.7h2.6v2.9c-0.6,0.5-1.4,1-2.9,1c-2.3,0-3.8-1.6-3.8-3.8c0-2.1,1.5-3.8,3.7-3.8
			c1.6,0,2.4,0.8,2.9,1.4l-0.8,0.6c-0.4-0.5-1-1.1-2.1-1.1c-1.6,0-2.6,1.3-2.6,2.9c0,1.7,1.1,2.8,2.7,2.8c0.9,0,1.4-0.2,1.9-0.5
			v-1.5h-1.6V239.7z"/>
		<linearGradient id="SVGID_14_" gradientUnits="userSpaceOnUse" x1="122.3699" y1="125.5121" x2="222.1186" y2="241.5925">
			<stop  offset="0" style="stop-color:#F9EDB3"/>
			<stop  offset="1" style="stop-color:#CE962D"/>
		</linearGradient>
		<path class="st13" d="M218.2,236.2h4.7v0.9h-3.6v2.1h2.7v0.9h-2.7v2.3h3.9v0.9h-4.9V236.2z"/>
	</g>
	<g>
		<linearGradient id="SVGID_15_" gradientUnits="userSpaceOnUse" x1="54.7507" y1="183.6178" x2="154.4994" y2="299.6982">
			<stop  offset="0" style="stop-color:#F9EDB3"/>
			<stop  offset="1" style="stop-color:#C7962D"/>
		</linearGradient>
		<path class="st14" d="M93.5,221.9c-1.4,1.7-2.7,2.6-4.9,2.7v0.3c0,0.1-0.1,0.1-0.1,0.1h-0.1v-0.9c0-0.1-0.1-0.1-0.1-0.1h-0.9
			c-0.1,0-0.1,0.1-0.1,0.1v0.9c0,0.1,0.1,0.1,0.1,0.1h0.5v1.2c0,0,0.1,0,0.1,0h1.5c0.1,0,0.2,0.1,0.2,0.2v1.5c0,0.1-0.1,0.2-0.2,0.2
			h0v-1.5c0-0.1-0.1-0.2-0.2-0.2h-1.5c-0.1,0-0.2,0.1-0.2,0.2v1.5c0,0.1,0.1,0.2,0.2,0.2h0.2v1.5c4-0.1,7.2-1.6,9.6-4.6L93.5,221.9z
			"/>
		<linearGradient id="SVGID_16_" gradientUnits="userSpaceOnUse" x1="60.8729" y1="178.3569" x2="160.6216" y2="294.4373">
			<stop  offset="0" style="stop-color:#F9EDB3"/>
			<stop  offset="1" style="stop-color:#C7962D"/>
		</linearGradient>
		<path class="st15" d="M85.5,208h0.8c0.1,0,0.1-0.1,0.1-0.1v-0.8c0-0.1-0.1-0.1-0.1-0.1h-0.8c-0.1,0-0.1,0.1-0.1,0.1v0.8
			C85.3,208,85.4,208,85.5,208z"/>
		<linearGradient id="SVGID_17_" gradientUnits="userSpaceOnUse" x1="54.999" y1="183.4044" x2="154.7478" y2="299.4848">
			<stop  offset="0" style="stop-color:#F9EDB3"/>
			<stop  offset="1" style="stop-color:#C7962D"/>
		</linearGradient>
		<path class="st16" d="M78.7,212h0.8c0.1,0,0.1-0.1,0.1-0.1v-0.8c0-0.1-0.1-0.1-0.1-0.1h-0.8c-0.1,0-0.1,0.1-0.1,0.1v0.8
			C78.6,212,78.6,212,78.7,212z"/>
		<linearGradient id="SVGID_18_" gradientUnits="userSpaceOnUse" x1="55.7444" y1="182.7638" x2="155.4932" y2="298.8442">
			<stop  offset="0" style="stop-color:#F9EDB3"/>
			<stop  offset="1" style="stop-color:#C7962D"/>
		</linearGradient>
		<path class="st17" d="M81.5,213.8h0.8c0.1,0,0.1-0.1,0.1-0.1v-0.8c0-0.1-0.1-0.1-0.1-0.1h-0.8c-0.1,0-0.1,0.1-0.1,0.1v0.8
			C81.4,213.7,81.5,213.8,81.5,213.8z"/>
		<linearGradient id="SVGID_19_" gradientUnits="userSpaceOnUse" x1="48.0219" y1="189.3998" x2="147.7707" y2="305.4803">
			<stop  offset="0" style="stop-color:#F9EDB3"/>
			<stop  offset="1" style="stop-color:#C7962D"/>
		</linearGradient>
		<path class="st18" d="M79.7,224.9h-1.1c-0.1,0-0.2,0.1-0.2,0.2v1.1c0,0.1,0.1,0.2,0.2,0.2h1.1c0.1,0,0.2-0.1,0.2-0.2v-1.1
			C79.8,225,79.8,224.9,79.7,224.9z"/>
		<linearGradient id="SVGID_20_" gradientUnits="userSpaceOnUse" x1="52.9731" y1="185.1453" x2="152.7218" y2="301.2257">
			<stop  offset="0" style="stop-color:#F9EDB3"/>
			<stop  offset="1" style="stop-color:#C7962D"/>
		</linearGradient>
		<path class="st19" d="M80.3,217.1v0.7c0,0.1,0,0.1,0.1,0.1h0.7c0.1,0,0.1,0,0.1-0.1v-0.7c0-0.1,0-0.1-0.1-0.1h-0.7
			C80.4,217,80.3,217.1,80.3,217.1z"/>
		<linearGradient id="SVGID_21_" gradientUnits="userSpaceOnUse" x1="51.8057" y1="186.1484" x2="151.5545" y2="302.2288">
			<stop  offset="0" style="stop-color:#F9EDB3"/>
			<stop  offset="1" style="stop-color:#C7962D"/>
		</linearGradient>
		<path class="st20" d="M82.9,222.5v0.6c0,0,0,0.1,0.1,0.1h0.6c0,0,0.1,0,0.1-0.1v-0.6c0,0,0-0.1-0.1-0.1L82.9,222.5
			C83,222.4,82.9,222.5,82.9,222.5z"/>
		<linearGradient id="SVGID_22_" gradientUnits="userSpaceOnUse" x1="50.6728" y1="187.1219" x2="150.4216" y2="303.2023">
			<stop  offset="0" style="stop-color:#F9EDB3"/>
			<stop  offset="1" style="stop-color:#C7962D"/>
		</linearGradient>
		<path class="st21" d="M77.4,217.9v-1.1c0-0.1-0.1-0.2-0.2-0.2h-1.1c-0.1,0-0.2,0.1-0.2,0.2v1.1c0,0.1,0.1,0.2,0.2,0.2h1.1
			C77.3,218.1,77.4,218,77.4,217.9z"/>
		<linearGradient id="SVGID_23_" gradientUnits="userSpaceOnUse" x1="62.4202" y1="177.0273" x2="162.1689" y2="293.1077">
			<stop  offset="0" style="stop-color:#F9EDB3"/>
			<stop  offset="1" style="stop-color:#C7962D"/>
		</linearGradient>
		<path class="st22" d="M86.9,210.3h0.9v2.3c0.1,0,0.1,0,0.2,0c2.2,0,4,1.1,5.2,2.7l3.9-3.8c-2.2-3-5.5-4.2-9.3-4.2v0.4h1.1
			c0.1,0,0.3,0.1,0.3,0.3v1.8c0,0.1-0.1,0.2-0.2,0.3c0,0,0,0,0,0v-1.8c0-0.1-0.1-0.3-0.3-0.3h-1.8c-0.1,0-0.3,0.1-0.3,0.3v1.8
			C86.7,210.2,86.8,210.3,86.9,210.3z"/>
		<linearGradient id="SVGID_24_" gradientUnits="userSpaceOnUse" x1="57.9752" y1="180.8469" x2="157.724" y2="296.9273">
			<stop  offset="0" style="stop-color:#F9EDB3"/>
			<stop  offset="1" style="stop-color:#C7962D"/>
		</linearGradient>
		<path class="st23" d="M81.8,212.2h2.9c0.2,0,0.4-0.2,0.4-0.4v-2.9c0-0.2-0.2-0.4-0.4-0.4h-2.9c-0.2,0-0.4,0.2-0.4,0.4v2.9
			C81.4,212,81.6,212.2,81.8,212.2z"/>
		<linearGradient id="SVGID_25_" gradientUnits="userSpaceOnUse" x1="59.1743" y1="179.8166" x2="158.923" y2="295.8969">
			<stop  offset="0" style="stop-color:#F9EDB3"/>
			<stop  offset="1" style="stop-color:#C7962D"/>
		</linearGradient>
		<path class="st24" d="M87.1,212.1v-1.2c0-0.1-0.1-0.2-0.2-0.2h-1.2c-0.1,0-0.2,0.1-0.2,0.2v1.2c0,0.1,0.1,0.2,0.2,0.2H87
			C87.1,212.2,87.1,212.2,87.1,212.1z"/>
		<linearGradient id="SVGID_26_" gradientUnits="userSpaceOnUse" x1="57.0405" y1="181.6501" x2="156.7893" y2="297.7305">
			<stop  offset="0" style="stop-color:#F9EDB3"/>
			<stop  offset="1" style="stop-color:#C7962D"/>
		</linearGradient>
		<path class="st25" d="M85.4,214.7c0.1,0,0.2-0.1,0.2-0.2v-1c0-0.1-0.1-0.2-0.2-0.2h-1c-0.1,0-0.2,0.1-0.2,0.2v1
			c0,0.1,0.1,0.2,0.2,0.2H85.4z"/>
		<linearGradient id="SVGID_27_" gradientUnits="userSpaceOnUse" x1="53.4472" y1="184.7379" x2="153.1959" y2="300.8183">
			<stop  offset="0" style="stop-color:#F9EDB3"/>
			<stop  offset="1" style="stop-color:#C7962D"/>
		</linearGradient>
		<path class="st26" d="M85.3,223.1h1c0.1,0,0.2-0.1,0.2-0.2v-1c0-0.1-0.1-0.2-0.2-0.2h-1c-0.1,0-0.2,0.1-0.2,0.2v1
			C85.1,223,85.2,223.1,85.3,223.1z"/>
		<linearGradient id="SVGID_28_" gradientUnits="userSpaceOnUse" x1="50.323" y1="187.4225" x2="150.0717" y2="303.5029">
			<stop  offset="0" style="stop-color:#F9EDB3"/>
			<stop  offset="1" style="stop-color:#C7962D"/>
		</linearGradient>
		<path class="st27" d="M87.2,229.1h-1c-0.1,0-0.2,0.1-0.2,0.2v1c0,0.1,0.1,0.2,0.2,0.2h1c0.1,0,0.2-0.1,0.2-0.2v-1
			C87.4,229.1,87.3,229.1,87.2,229.1z"/>
		<linearGradient id="SVGID_29_" gradientUnits="userSpaceOnUse" x1="55.0138" y1="183.3917" x2="154.7625" y2="299.4721">
			<stop  offset="0" style="stop-color:#F9EDB3"/>
			<stop  offset="1" style="stop-color:#C7962D"/>
		</linearGradient>
		<path class="st28" d="M83.5,216.2v-1.4c0-0.1-0.1-0.2-0.2-0.2h-1.4c-0.1,0-0.2,0.1-0.2,0.2v1.4c0,0.1,0.1,0.2,0.2,0.2h1.4
			C83.4,216.4,83.5,216.3,83.5,216.2z"/>
		<linearGradient id="SVGID_30_" gradientUnits="userSpaceOnUse" x1="53.0761" y1="185.0567" x2="152.8248" y2="301.1371">
			<stop  offset="0" style="stop-color:#F9EDB3"/>
			<stop  offset="1" style="stop-color:#C7962D"/>
		</linearGradient>
		<path class="st29" d="M84.3,221v-1.4c0-0.1-0.1-0.2-0.2-0.2h-1.4c-0.1,0-0.2,0.1-0.2,0.2v1.4c0,0.1,0.1,0.2,0.2,0.2h1.4
			C84.2,221.2,84.3,221.1,84.3,221z"/>
		<linearGradient id="SVGID_31_" gradientUnits="userSpaceOnUse" x1="53.1434" y1="184.9989" x2="152.8922" y2="301.0793">
			<stop  offset="0" style="stop-color:#F9EDB3"/>
			<stop  offset="1" style="stop-color:#C7962D"/>
		</linearGradient>
		<path class="st30" d="M77.5,216.4H80c0.2,0,0.4-0.2,0.4-0.4v-2.5c0-0.2-0.2-0.4-0.4-0.4h-2.5c-0.2,0-0.4,0.2-0.4,0.4v2.5
			C77.1,216.2,77.3,216.4,77.5,216.4z"/>
		<linearGradient id="SVGID_32_" gradientUnits="userSpaceOnUse" x1="50.1469" y1="187.5738" x2="149.8957" y2="303.6542">
			<stop  offset="0" style="stop-color:#F9EDB3"/>
			<stop  offset="1" style="stop-color:#C7962D"/>
		</linearGradient>
		<path class="st31" d="M86,224.8c0-0.3-0.2-0.5-0.5-0.5h-3.6c-0.3,0-0.5,0.2-0.5,0.5v3.6c0,0.3,0.2,0.5,0.5,0.5h3.6
			c0.3,0,0.5-0.2,0.5-0.5V224.8z"/>
		<linearGradient id="SVGID_33_" gradientUnits="userSpaceOnUse" x1="50.1944" y1="187.533" x2="149.9431" y2="303.6134">
			<stop  offset="0" style="stop-color:#F9EDB3"/>
			<stop  offset="1" style="stop-color:#C7962D"/>
		</linearGradient>
		<path class="st32" d="M81.4,219.3c0-0.3-0.2-0.5-0.5-0.5h-3.6c-0.3,0-0.5,0.2-0.5,0.5v3.6c0,0.3,0.2,0.5,0.5,0.5h3.6
			c0.3,0,0.5-0.2,0.5-0.5V219.3z"/>
	</g>
	<g>
		<linearGradient id="SVGID_34_" gradientUnits="userSpaceOnUse" x1="133.9368" y1="115.5726" x2="233.6855" y2="231.653">
			<stop  offset="0" style="stop-color:#F9EDB3"/>
			<stop  offset="1" style="stop-color:#C7962D"/>
		</linearGradient>
		<path class="st33" d="M184.1,136.4c-7.7,9.4-14.8,14.1-26.5,14.9v1.4c0,0.4-0.3,0.8-0.8,0.8h-0.4v-4.7c0-0.4-0.3-0.8-0.8-0.8h-5
			c-0.4,0-0.8,0.3-0.8,0.8v5c0,0.4,0.3,0.8,0.8,0.8h2.5v6.5c0.2-0.1,0.3-0.2,0.6-0.2h8.2c0.7,0,1.2,0.6,1.2,1.2v8.2
			c0,0.7-0.6,1.2-1.2,1.2h-0.2v-7.9c0-0.7-0.6-1.2-1.2-1.2h-8.2c-0.7,0-1.2,0.6-1.2,1.2v8.2c0,0.7,0.6,1.2,1.2,1.2h0.9v8.3
			c21.7-0.4,39.2-8.6,52.5-24.8L184.1,136.4z"/>
		<linearGradient id="SVGID_35_" gradientUnits="userSpaceOnUse" x1="167.2852" y1="86.916" x2="267.0339" y2="202.9964">
			<stop  offset="0" style="stop-color:#F9EDB3"/>
			<stop  offset="1" style="stop-color:#C7962D"/>
		</linearGradient>
		<path class="st34" d="M140.2,61h4.5c0.4,0,0.7-0.3,0.7-0.7v-4.5c0-0.4-0.3-0.7-0.7-0.7h-4.5c-0.4,0-0.7,0.3-0.7,0.7v4.5
			C139.5,60.7,139.8,61,140.2,61z"/>
		<linearGradient id="SVGID_36_" gradientUnits="userSpaceOnUse" x1="135.2895" y1="114.4102" x2="235.0382" y2="230.4906">
			<stop  offset="0" style="stop-color:#F9EDB3"/>
			<stop  offset="1" style="stop-color:#C7962D"/>
		</linearGradient>
		<path class="st35" d="M103.3,82.8h4.5c0.4,0,0.7-0.3,0.7-0.7v-4.5c0-0.4-0.3-0.7-0.7-0.7h-4.5c-0.4,0-0.7,0.3-0.7,0.7v4.5
			C102.6,82.5,102.9,82.8,103.3,82.8z"/>
		<linearGradient id="SVGID_37_" gradientUnits="userSpaceOnUse" x1="139.3499" y1="110.921" x2="239.0987" y2="227.0014">
			<stop  offset="0" style="stop-color:#F9EDB3"/>
			<stop  offset="1" style="stop-color:#C7962D"/>
		</linearGradient>
		<path class="st36" d="M118.7,92.4h4.5c0.4,0,0.7-0.3,0.7-0.7v-4.5c0-0.4-0.3-0.7-0.7-0.7h-4.5c-0.4,0-0.7,0.3-0.7,0.7v4.5
			C118,92.1,118.3,92.4,118.7,92.4z"/>
		<linearGradient id="SVGID_38_" gradientUnits="userSpaceOnUse" x1="97.2842" y1="147.0684" x2="197.033" y2="263.1488">
			<stop  offset="0" style="stop-color:#F9EDB3"/>
			<stop  offset="1" style="stop-color:#C7962D"/>
		</linearGradient>
		<path class="st37" d="M108.6,153h-5.8c-0.5,0-0.9,0.4-0.9,0.9v5.8c0,0.5,0.4,0.9,0.9,0.9h5.8c0.5,0,0.9-0.4,0.9-0.9v-5.8
			C109.5,153.4,109.1,153,108.6,153z"/>
		<linearGradient id="SVGID_39_" gradientUnits="userSpaceOnUse" x1="124.254" y1="123.8931" x2="224.0027" y2="239.9735">
			<stop  offset="0" style="stop-color:#F9EDB3"/>
			<stop  offset="1" style="stop-color:#C7962D"/>
		</linearGradient>
		<path class="st38" d="M112.1,110.7v3.9c0,0.3,0.3,0.6,0.6,0.6h3.9c0.3,0,0.6-0.3,0.6-0.6v-3.9c0-0.3-0.3-0.6-0.6-0.6h-3.9
			C112.3,110.1,112.1,110.4,112.1,110.7z"/>
		<linearGradient id="SVGID_40_" gradientUnits="userSpaceOnUse" x1="117.8953" y1="129.3571" x2="217.644" y2="245.4375">
			<stop  offset="0" style="stop-color:#F9EDB3"/>
			<stop  offset="1" style="stop-color:#C7962D"/>
		</linearGradient>
		<path class="st39" d="M126.3,139.9v3.2c0,0.3,0.2,0.5,0.5,0.5h3.2c0.3,0,0.5-0.2,0.5-0.5v-3.2c0-0.3-0.2-0.5-0.5-0.5h-3.2
			C126.5,139.4,126.3,139.7,126.3,139.9z"/>
		<linearGradient id="SVGID_41_" gradientUnits="userSpaceOnUse" x1="111.7241" y1="134.6601" x2="211.4729" y2="250.7405">
			<stop  offset="0" style="stop-color:#F9EDB3"/>
			<stop  offset="1" style="stop-color:#C7962D"/>
		</linearGradient>
		<path class="st40" d="M96.1,115v-5.8c0-0.5-0.4-0.9-0.9-0.9h-5.8c-0.5,0-0.9,0.4-0.9,0.9v5.8c0,0.5,0.4,0.9,0.9,0.9h5.8
			C95.7,115.9,96.1,115.5,96.1,115z"/>
		<linearGradient id="SVGID_42_" gradientUnits="userSpaceOnUse" x1="175.7137" y1="79.6734" x2="275.4624" y2="195.7538">
			<stop  offset="0" style="stop-color:#F9EDB3"/>
			<stop  offset="1" style="stop-color:#C7962D"/>
		</linearGradient>
		<path class="st41" d="M148.1,73.3h5.1v12.8c0.3,0,0.5-0.1,0.8-0.1c12.2,0,21.7,5.8,28.4,14.8L203.7,80
			c-12.1-16.5-30-22.6-50.5-22.9v2.4h5.8c0.8,0,1.5,0.7,1.5,1.5v9.7c0,0.7-0.6,1.3-1.2,1.4c0-0.1,0.1-0.1,0.1-0.2v-9.7
			c0-0.8-0.7-1.5-1.5-1.5h-9.7c-0.8,0-1.5,0.7-1.5,1.5v9.7C146.7,72.6,147.3,73.3,148.1,73.3z"/>
		<linearGradient id="SVGID_43_" gradientUnits="userSpaceOnUse" x1="151.5015" y1="100.4791" x2="251.2502" y2="216.5595">
			<stop  offset="0" style="stop-color:#F9EDB3"/>
			<stop  offset="1" style="stop-color:#C7962D"/>
		</linearGradient>
		<path class="st42" d="M120.4,83.6H136c1.3,0,2.4-1.1,2.4-2.4V65.5c0-1.3-1.1-2.4-2.4-2.4h-15.7c-1.3,0-2.4,1.1-2.4,2.4v15.7
			C118,82.5,119,83.6,120.4,83.6z"/>
		<linearGradient id="SVGID_44_" gradientUnits="userSpaceOnUse" x1="158.0327" y1="94.8668" x2="257.7814" y2="210.9472">
			<stop  offset="0" style="stop-color:#F9EDB3"/>
			<stop  offset="1" style="stop-color:#C7962D"/>
		</linearGradient>
		<path class="st43" d="M149.3,83v-6.4c0-0.5-0.4-1-1-1h-6.4c-0.5,0-1,0.4-1,1V83c0,0.5,0.4,1,1,1h6.4C148.9,84,149.3,83.6,149.3,83
			z"/>
		<linearGradient id="SVGID_45_" gradientUnits="userSpaceOnUse" x1="146.41" y1="104.8542" x2="246.1587" y2="220.9346">
			<stop  offset="0" style="stop-color:#F9EDB3"/>
			<stop  offset="1" style="stop-color:#C7962D"/>
		</linearGradient>
		<path class="st44" d="M139.8,97.5c0.5,0,0.9-0.4,0.9-0.9V91c0-0.5-0.4-0.9-0.9-0.9h-5.7c-0.5,0-0.9,0.4-0.9,0.9v5.7
			c0,0.5,0.4,0.9,0.9,0.9H139.8z"/>
		<linearGradient id="SVGID_46_" gradientUnits="userSpaceOnUse" x1="126.8366" y1="121.6738" x2="226.5853" y2="237.7542">
			<stop  offset="0" style="stop-color:#F9EDB3"/>
			<stop  offset="1" style="stop-color:#C7962D"/>
		</linearGradient>
		<path class="st45" d="M139.3,143.1h5.7c0.5,0,0.9-0.4,0.9-0.9v-5.7c0-0.5-0.4-0.9-0.9-0.9h-5.7c-0.5,0-0.9,0.4-0.9,0.9v5.7
			C138.4,142.7,138.8,143.1,139.3,143.1z"/>
		<linearGradient id="SVGID_47_" gradientUnits="userSpaceOnUse" x1="109.8184" y1="136.2977" x2="209.5671" y2="252.3781">
			<stop  offset="0" style="stop-color:#F9EDB3"/>
			<stop  offset="1" style="stop-color:#C7962D"/>
		</linearGradient>
		<path class="st46" d="M149.6,175.6h-5.7c-0.5,0-0.9,0.4-0.9,0.9v5.7c0,0.5,0.4,0.9,0.9,0.9h5.7c0.5,0,0.9-0.4,0.9-0.9v-5.7
			C150.5,176,150.1,175.6,149.6,175.6z"/>
		<linearGradient id="SVGID_48_" gradientUnits="userSpaceOnUse" x1="135.3699" y1="114.3411" x2="235.1186" y2="230.4215">
			<stop  offset="0" style="stop-color:#F9EDB3"/>
			<stop  offset="1" style="stop-color:#C7962D"/>
		</linearGradient>
		<path class="st47" d="M129.5,105.6v-7.6c0-0.6-0.5-1.2-1.2-1.2h-7.6c-0.6,0-1.2,0.5-1.2,1.2v7.6c0,0.6,0.5,1.2,1.2,1.2h7.6
			C129,106.7,129.5,106.2,129.5,105.6z"/>
		<linearGradient id="SVGID_49_" gradientUnits="userSpaceOnUse" x1="124.8152" y1="123.4108" x2="224.5639" y2="239.4912">
			<stop  offset="0" style="stop-color:#F9EDB3"/>
			<stop  offset="1" style="stop-color:#C7962D"/>
		</linearGradient>
		<path class="st48" d="M133.8,131.9v-7.6c0-0.6-0.5-1.2-1.2-1.2H125c-0.6,0-1.2,0.5-1.2,1.2v7.6c0,0.6,0.5,1.2,1.2,1.2h7.6
			C133.3,133,133.8,132.5,133.8,131.9z"/>
		<linearGradient id="SVGID_50_" gradientUnits="userSpaceOnUse" x1="125.1818" y1="123.0958" x2="224.9305" y2="239.1762">
			<stop  offset="0" style="stop-color:#F9EDB3"/>
			<stop  offset="1" style="stop-color:#C7962D"/>
		</linearGradient>
		<path class="st49" d="M96.8,106.7h13.5c1.1,0,2-0.9,2-2V91.2c0-1.1-0.9-2-2-2H96.8c-1.1,0-2,0.9-2,2v13.5
			C94.8,105.8,95.7,106.7,96.8,106.7z"/>
		<linearGradient id="SVGID_51_" gradientUnits="userSpaceOnUse" x1="108.8596" y1="137.1216" x2="208.6083" y2="253.202">
			<stop  offset="0" style="stop-color:#F9EDB3"/>
			<stop  offset="1" style="stop-color:#C7962D"/>
		</linearGradient>
		<path class="st50" d="M143.1,152.2c0-1.6-1.3-3-3-3h-19.6c-1.6,0-3,1.3-3,3v19.6c0,1.6,1.3,3,3,3h19.6c1.6,0,3-1.3,3-3V152.2z"/>
		<linearGradient id="SVGID_52_" gradientUnits="userSpaceOnUse" x1="109.118" y1="136.8995" x2="208.8668" y2="252.9799">
			<stop  offset="0" style="stop-color:#F9EDB3"/>
			<stop  offset="1" style="stop-color:#C7962D"/>
		</linearGradient>
		<path class="st51" d="M118,122.4c0-1.7-1.3-3-3-3H95.3c-1.7,0-3,1.3-3,3v19.7c0,1.7,1.3,3,3,3H115c1.7,0,3-1.3,3-3V122.4z"/>
	</g>
</g>
</svg>
